<?xml version="1.0" encoding="iso-8859-1"?>
<!-- Generator: Adobe Illustrator 18.0.0, SVG Export Plug-In . SVG Version: 6.00 Build 0)  -->
<!DOCTYPE svg PUBLIC "-//W3C//DTD SVG 1.1//EN" "http://www.w3.org/Graphics/SVG/1.1/DTD/svg11.dtd">
<svg xmlns="http://www.w3.org/2000/svg" xmlns:xlink="http://www.w3.org/1999/xlink" version="1.1" id="Capa_1" x="0px" y="0px" viewBox="0 0 434.041 434.041" style="enable-background:new 0 0 434.041 434.041;" xml:space="preserve" width="512px" height="512px">
<path d="M384.721,222.131c-13.896-12.474-32.795-19.065-54.659-19.065c-15.998,0-30.541,3.662-42.676,10.656l-41.516-12.585  C330.949,201.137,283.272,0,201.409,0h-22.892c-95.604,0-125.176,201.137-44.46,201.137l-50.346,15.26  C48.262,226.583,27.122,379.74,27.122,379.74c-0.061,0.52-0.102,1.047-0.102,1.583c0,7.377,5.976,13.353,13.35,13.353h248.85  c0.258,21.749,18.022,39.365,39.831,39.365c21.969,0,39.841-17.872,39.841-39.843c0-8.721-2.823-16.792-7.595-23.36  c2.593-4.729,4.143-10.136,4.326-15.925c0.157-5.028,0.985-6.252,9.832-14.528c11.805-11.051,31.565-29.54,31.565-65.915  C407.021,253.63,399.1,235.041,384.721,222.131z M224.093,212.788l-3.291,26.733c-0.056,0.468-0.188,0.923-0.385,1.349  l-26.348,56.887c-0.741,1.6-2.343,2.626-4.107,2.626c-1.763,0-3.365-1.025-4.106-2.626l-26.365-56.887  c-0.198-0.426-0.329-0.885-0.387-1.35l-3.277-26.735c-0.202-1.654,0.52-3.284,1.88-4.245c1.36-0.963,3.138-1.102,4.629-0.359  c5.134,2.557,10.217,3.852,15.105,3.852h25.042c4.888,0,9.968-1.295,15.102-3.848c1.491-0.743,3.27-0.605,4.63,0.357  C223.574,209.504,224.297,211.136,224.093,212.788z M245.177,126.873c-1.429,10.825-7.502,24.846-16.242,37.512  c-11.067,16.054-21.441,23.238-26.813,23.238h-24.316c-5.372,0-15.747-7.187-26.816-23.242c-8.738-12.662-14.81-26.682-16.24-37.497  l-0.246-1.875l-4.392-2.855c-1.285-0.833-2.06-2.263-2.06-3.792v-7.455c0-2.498,2.027-4.525,4.526-4.525h1.849V90.818  c0-1.569,0.813-3.027,2.146-3.849c1.334-0.826,2.998-0.902,4.401-0.202c6.957,3.469,16.245,3.872,22.626,3.872  c4.308,0,8.631-0.218,12.444-0.406c1.181-0.06,2.326-0.115,3.427-0.165c1.516-0.067,3.06-0.101,4.586-0.101  c18.633,0,34.27,4.866,45.685,8.417c5.003,1.558,8.954,2.787,11.827,3.17c2.25,0.298,3.931,2.218,3.931,4.487v0.339h1.849  c2.497,0,4.526,2.027,4.526,4.525v7.455c0,1.529-0.775,2.959-2.061,3.792l-4.391,2.855L245.177,126.873z M329.76,411.41  c-9.49,0-17.21-7.721-17.21-17.212c0-9.49,7.72-17.212,17.21-17.212c9.489,0,17.21,7.722,17.21,17.212  C346.97,403.69,339.249,411.41,329.76,411.41z M360.699,323.859c-9.229,8.637-16.52,15.457-16.987,30.341  c-0.214,6.811-5.798,12.222-12.61,12.222h-1.109c-3.411,0-6.676-1.382-9.054-3.83c-2.375-2.447-3.66-5.752-3.558-9.162  c0.748-25.29,13.914-37.645,24.492-47.574c9.8-9.201,16.885-15.849,16.885-31.638c0-18.331-15.359-22.183-28.24-22.183  c-16.952,0-26.33,6.799-27.876,20.207c-0.791,6.848-6.929,11.806-13.794,11.109l-1.12-0.113c-3.369-0.336-6.457-2.013-8.577-4.65  c-2.12-2.637-3.093-6.016-2.698-9.374c3.152-26.843,23.965-43.519,54.317-43.519c33.002,0,54.329,19.145,54.329,48.774  C385.099,301.026,371.568,313.689,360.699,323.859z" fill="#D80027"/>
<g>
</g>
<g>
</g>
<g>
</g>
<g>
</g>
<g>
</g>
<g>
</g>
<g>
</g>
<g>
</g>
<g>
</g>
<g>
</g>
<g>
</g>
<g>
</g>
<g>
</g>
<g>
</g>
<g>
</g>
</svg>
