<?xml version="1.0" encoding="iso-8859-1"?>
<!-- Generator: Adobe Illustrator 16.0.0, SVG Export Plug-In . SVG Version: 6.00 Build 0)  -->
<!DOCTYPE svg PUBLIC "-//W3C//DTD SVG 1.1//EN" "http://www.w3.org/Graphics/SVG/1.1/DTD/svg11.dtd">
<svg xmlns="http://www.w3.org/2000/svg" xmlns:xlink="http://www.w3.org/1999/xlink" version="1.1" id="Capa_1" x="0px" y="0px" width="512px" height="512px" viewBox="0 0 70.074 70.074" style="enable-background:new 0 0 70.074 70.074;" xml:space="preserve">
<g>
	<path d="M23.766,53.51c-1.148-1.793-1.801-4.125-1.957-6.994H15.37c-0.068,5.466,1.632,9.795,5.106,12.988   c1.681,1.561,3.683,2.729,5.991,3.531c-0.785,2.368-1.654,4.717-2.651,7.039c1.038,0,2.077,0,3.113,0   c9.41-21.889,9.41-46.253,0-68.14c-1.037,0-2.076,0-3.113,0c1.423,3.308,2.603,6.675,3.595,10.079   c-2.258,0.725-4.186,1.829-5.76,3.331c-3.062,2.917-4.592,6.648-4.592,11.195c0,4.203,1.558,7.361,4.672,9.475   c1.779,1.204,4.806,2.304,9.058,3.306c-0.234,6.001-1.092,11.993-2.594,17.881C26.324,56.36,24.836,55.143,23.766,53.51z    M23.565,25.362c0-2.249,0.849-4.226,2.541-5.926c0.715-0.716,1.664-1.251,2.778-1.654c1.048,4.81,1.681,9.675,1.891,14.552   c-1.997-0.576-3.417-1.088-4.206-1.531C24.568,29.661,23.565,27.843,23.565,25.362z M43.142,70.074c1.038,0,2.076,0,3.116,0   c-1.004-2.34-1.88-4.713-2.669-7.099c1.811-0.574,3.552-1.296,5.155-2.268c3.971-2.413,5.963-6.419,5.963-12.025   c0-4.498-1.559-7.929-4.672-10.297c-1.802-1.354-4.361-2.422-7.679-3.202l-3.115-0.735c0.101-5.472,0.714-10.937,1.868-16.333   c1.464,0.65,2.666,1.551,3.561,2.735c1.079,1.446,1.784,3.525,2.11,6.235h6.443c0-5.627-1.804-9.72-5.413-12.28   c-1.578-1.119-3.328-1.962-5.21-2.581c1.009-3.478,2.206-6.918,3.657-10.296c-1.04,0-2.078,0-3.116,0   C33.733,23.819,33.733,48.186,43.142,70.074z M45.519,43.896c1.672,1.173,2.502,3.135,2.502,5.891c0,3.672-1.969,6.223-5.9,7.644   c-0.056,0.021-0.117,0.039-0.172,0.053c-1.373-5.306-2.212-10.691-2.555-16.104C42.061,42.127,44.136,42.962,45.519,43.896z    M31.351,3.687C31.351,1.649,33.002,0,35.037,0s3.686,1.649,3.686,3.687c0,2.037-1.651,3.686-3.686,3.686   S31.351,5.723,31.351,3.687z" fill="#FFFFFF"/>
</g>
<g>
</g>
<g>
</g>
<g>
</g>
<g>
</g>
<g>
</g>
<g>
</g>
<g>
</g>
<g>
</g>
<g>
</g>
<g>
</g>
<g>
</g>
<g>
</g>
<g>
</g>
<g>
</g>
<g>
</g>
</svg>
