<?xml version="1.0" encoding="iso-8859-1"?>
<!-- Generator: Adobe Illustrator 19.0.0, SVG Export Plug-In . SVG Version: 6.00 Build 0)  -->
<svg version="1.1" id="Layer_1" xmlns="http://www.w3.org/2000/svg" xmlns:xlink="http://www.w3.org/1999/xlink" x="0px" y="0px"
	 viewBox="0 0 512 512" style="enable-background:new 0 0 512 512;" xml:space="preserve">
<path style="fill:#967A56;" d="M134.751,226.227c-8.13,0-15.614-4.43-19.528-11.555c-9.592-17.461-15.048-37.516-15.048-58.847l0,0
	C100.174,69.766,169.939,0,256,0l0,0c86.061,0,155.826,69.766,155.826,155.826l0,0c0,21.33-5.456,41.385-15.048,58.847
	c-3.913,7.126-11.399,11.555-19.528,11.555L134.751,226.227z"/>
<path style="fill:#7F674C;" d="M367.304,144.696C367.304,206.167,317.471,256,256,256s-111.304-49.833-111.304-111.304
	S194.528,33.391,256,33.391S367.304,83.224,367.304,144.696z"/>
<path style="fill:#FF8F73;" d="M381.659,512H130.341c-34.13,0-58.231-27.645-47.438-54.414l38.737-69.61v-51.677
	c0-62.789,60.154-113.69,134.36-113.69l0,0c74.205,0,134.36,50.901,134.36,113.69v51.678l38.737,69.61
	C439.89,484.355,415.791,512,381.659,512z"/>
<path style="fill:#DBA87B;" d="M289.391,211.478V256c0,18.442-14.949,33.391-33.391,33.391l0,0
	c-18.442,0-33.391-14.949-33.391-33.391v-44.522H289.391z"/>
<path style="fill:#F7C592;" d="M256,100.174c37.25,0,72.782,2.935,105.253,8.247c3.919,11.371,6.052,23.573,6.052,36.275
	C367.304,206.167,317.471,256,256,256c-61.472,0-111.304-49.833-111.304-111.304c0-12.702,2.133-24.904,6.052-36.275
	C183.218,103.109,218.75,100.174,256,100.174z"/>
<path style="fill:#DBA87B;" d="M300.366,209.749c-13.273,8.413-28.615,12.86-44.366,12.86s-31.093-4.447-44.366-12.86
	c-5.192-3.291-6.733-10.168-3.443-15.36c3.29-5.192,10.168-6.734,15.36-3.443c9.704,6.151,20.924,9.402,32.449,9.402
	s22.745-3.251,32.449-9.401c5.193-3.289,12.069-1.75,15.36,3.443C307.099,199.582,305.557,206.458,300.366,209.749z"/>
<path style="fill:#665A4B;" d="M232.626,155.826H230.4c-6.147,0-11.13-4.983-11.13-11.13c0-6.147,4.983-11.13,11.13-11.13h2.226
	c6.147,0,11.13,4.983,11.13,11.13C243.756,150.843,238.773,155.826,232.626,155.826z M292.73,144.696
	c0-6.147-4.983-11.13-11.13-11.13h-2.226c-6.147,0-11.13,4.983-11.13,11.13c0,6.147,4.983,11.13,11.13,11.13h2.226
	C287.747,155.826,292.73,150.843,292.73,144.696z"/>
<path style="fill:#C65842;" d="M185.6,300.522v66.783c0,6.147-4.983,11.13-11.13,11.13c-6.147,0-11.13-4.983-11.13-11.13v-66.783
	c0-6.147,4.983-11.13,11.13-11.13C180.617,289.391,185.6,294.374,185.6,300.522z M337.566,289.391c-6.147,0-11.13,4.983-11.13,11.13
	v66.783c0,6.147,4.983,11.13,11.13,11.13c6.147,0,11.13-4.983,11.13-11.13v-66.783C348.696,294.374,343.713,289.391,337.566,289.391
	z M256,322.783c-16.604,0-32.533,6.584-44.852,18.537c-4.411,4.281-4.518,11.327-0.237,15.74c4.281,4.411,11.326,4.517,15.74,0.237
	c8.142-7.901,18.566-12.252,29.35-12.252c10.784,0,21.208,4.351,29.35,12.252c2.161,2.098,4.957,3.142,7.75,3.142
	c2.904,0,5.807-1.13,7.989-3.379c4.281-4.411,4.175-11.458-0.237-15.74C288.533,329.366,272.604,322.783,256,322.783z"/>
<path style="fill:#FFDDCF;" d="M300.041,395.705c7.78,8.076,7.688,20.932-0.276,28.896l-14.589,14.589l-13.436,13.436
	c-8.693,8.693-22.788,8.693-31.481,0l-13.436-13.436L212.235,424.6c-7.964-7.964-8.056-20.818-0.276-28.895
	c8.023-8.329,21.658-8.076,29.835,0.101L256,410.012l14.206-14.206C278.382,387.63,292.018,387.376,300.041,395.705z"/>
<path style="fill:#F7C592;" d="M185.274,412.407L185.274,412.407c-12.109,12.109-31.741,12.109-43.849,0l-19.784-24.432
	l41.709-41.342l21.925,21.925C197.382,380.666,197.382,400.299,185.274,412.407z M326.744,412.407L326.744,412.407
	c12.109,12.109,31.741,12.109,43.849,0l19.784-24.432l-41.709-41.342l-21.925,21.925
	C314.635,380.666,314.635,400.299,326.744,412.407z"/>
<g>
</g>
<g>
</g>
<g>
</g>
<g>
</g>
<g>
</g>
<g>
</g>
<g>
</g>
<g>
</g>
<g>
</g>
<g>
</g>
<g>
</g>
<g>
</g>
<g>
</g>
<g>
</g>
<g>
</g>
</svg>
